<svg id="图层_1" data-name="图层 1" xmlns="http://www.w3.org/2000/svg" viewBox="0 0 188.95 240.72"><defs><style>.cls-1{fill:#d31820;}</style></defs><title>未标题-3</title><path class="cls-1" d="M546.47,444.19l83.59,90.87a10.87,10.87,0,0,0,16,0l83.58-90.87a10.87,10.87,0,0,0-8-18.23h-14L642.51,528.5a4.92,4.92,0,0,1-6.28,1.9,4.78,4.78,0,0,1-1.89-6.82l62-97.62h-1.69a8.43,8.43,0,0,1-8.43-8.42v-8L626,504.14a3.76,3.76,0,0,1-4.44,1.58,3.68,3.68,0,0,1-1.83-5.43L682.37,402a4.85,4.85,0,0,0-1.38-.21H664.38l-50.94,80a8.87,8.87,0,0,1-6.71,3.68h0a2.4,2.4,0,0,1-2-3.68l50.95-80H631.33a4.6,4.6,0,0,1-.56,1.34l-41.3,65a11.48,11.48,0,0,1-8.67,4.77h0a3.1,3.1,0,0,1-2.62-4.77l42.14-66.34h-25.2a5.26,5.26,0,0,0-5.24,5.24v10.56a8.42,8.42,0,0,1-8.42,8.42h-27A10.87,10.87,0,0,0,546.47,444.19Z" transform="translate(-543.58 -297.85)"/><path class="cls-1" d="M595.32,395.85h2.88l18.26-28.74H595.32a5.46,5.46,0,0,0-5.44,5.44v17.86A5.46,5.46,0,0,0,595.32,395.85Z" transform="translate(-543.58 -297.85)"/><path class="cls-1" d="M675.26,394.59a3.35,3.35,0,0,1-.23,1.26h5.77a5.45,5.45,0,0,0,5.43-5.44V372.55a5.45,5.45,0,0,0-5.43-5.44h-5.67Z" transform="translate(-543.58 -297.85)"/><path class="cls-1" d="M656.06,394.68a3.78,3.78,0,0,1-.2,1.17h12.28a3.64,3.64,0,0,1-.24-1.23l-.13-27.51H655.93Z" transform="translate(-543.58 -297.85)"/><path class="cls-1" d="M648.91,395.85a3.6,3.6,0,0,1-.21-1.14l-.13-27.6H627.76L609.5,395.85Z" transform="translate(-543.58 -297.85)"/><path class="cls-1" d="M595.32,361.22h2.88l18.26-28.74H595.32a5.46,5.46,0,0,0-5.44,5.44v17.86A5.46,5.46,0,0,0,595.32,361.22Z" transform="translate(-543.58 -297.85)"/><path class="cls-1" d="M675.26,360a3.32,3.32,0,0,1-.23,1.26h5.77a5.45,5.45,0,0,0,5.43-5.44V337.92a5.45,5.45,0,0,0-5.43-5.44h-5.67Z" transform="translate(-543.58 -297.85)"/><path class="cls-1" d="M656.06,360.05a3.78,3.78,0,0,1-.2,1.17h12.28a3.54,3.54,0,0,1-.24-1.23l-.13-27.51H655.93Z" transform="translate(-543.58 -297.85)"/><path class="cls-1" d="M648.91,361.22a3.59,3.59,0,0,1-.21-1.13l-.13-27.61H627.76L609.5,361.22Z" transform="translate(-543.58 -297.85)"/><path class="cls-1" d="M595.32,326.59h2.88l18.26-28.74H595.32a5.46,5.46,0,0,0-5.44,5.44v17.87A5.45,5.45,0,0,0,595.32,326.59Z" transform="translate(-543.58 -297.85)"/><path class="cls-1" d="M675.26,325.33a3.28,3.28,0,0,1-.23,1.26h5.77a5.44,5.44,0,0,0,5.43-5.43V303.29a5.45,5.45,0,0,0-5.43-5.44h-5.67Z" transform="translate(-543.58 -297.85)"/><path class="cls-1" d="M656.06,325.42a3.78,3.78,0,0,1-.2,1.17h12.28a3.53,3.53,0,0,1-.24-1.22l-.13-27.52H655.93Z" transform="translate(-543.58 -297.85)"/><path class="cls-1" d="M648.91,326.59a3.54,3.54,0,0,1-.21-1.13l-.13-27.61H627.76L609.5,326.59Z" transform="translate(-543.58 -297.85)"/></svg>