<svg id="图层_1" data-name="图层 1" xmlns="http://www.w3.org/2000/svg" viewBox="0 0 188.95 240.72"><defs><style>.cls-1{fill:#278cbc;}</style></defs><title>未标题-3</title><path class="cls-1" d="M752.36,444.34l-83.58-90.87a10.87,10.87,0,0,0-16,0L569.2,444.34a10.87,10.87,0,0,0,8,18.23h14L656.33,360a4.91,4.91,0,0,1,6.27-1.9,4.78,4.78,0,0,1,1.9,6.82l-62,97.62h1.7A8.42,8.42,0,0,1,612.6,471V479l60.23-94.56a3.77,3.77,0,0,1,4.45-1.58,3.7,3.7,0,0,1,1.83,5.43l-62.64,98.35a5.23,5.23,0,0,0,1.38.21h16.6l50.95-80a8.9,8.9,0,0,1,6.71-3.68h0a2.39,2.39,0,0,1,2,3.68l-50.94,80h24.33a4.66,4.66,0,0,1,.56-1.35l41.29-65a11.5,11.5,0,0,1,8.68-4.77h0a3.11,3.11,0,0,1,2.62,4.77L678.51,486.8h25.2a5.27,5.27,0,0,0,5.25-5.25V471a8.42,8.42,0,0,1,8.42-8.43h27A10.87,10.87,0,0,0,752.36,444.34Z" transform="translate(-566.31 -349.96)"/><path class="cls-1" d="M703.52,492.68h-2.89l-18.25,28.74h21.14A5.45,5.45,0,0,0,709,516V498.12A5.46,5.46,0,0,0,703.52,492.68Z" transform="translate(-566.31 -349.96)"/><path class="cls-1" d="M623.57,494a3.58,3.58,0,0,1,.24-1.27H618a5.46,5.46,0,0,0-5.44,5.44V516a5.45,5.45,0,0,0,5.44,5.43h5.66Z" transform="translate(-566.31 -349.96)"/><path class="cls-1" d="M642.77,493.86a3.53,3.53,0,0,1,.21-1.18H630.7a3.63,3.63,0,0,1,.23,1.23l.14,27.51h11.84Z" transform="translate(-566.31 -349.96)"/><path class="cls-1" d="M649.93,492.68a3.59,3.59,0,0,1,.2,1.14l.14,27.6h20.81l18.26-28.74Z" transform="translate(-566.31 -349.96)"/><path class="cls-1" d="M703.52,527.31h-2.89l-18.25,28.74h21.14a5.46,5.46,0,0,0,5.44-5.44V532.75A5.46,5.46,0,0,0,703.52,527.31Z" transform="translate(-566.31 -349.96)"/><path class="cls-1" d="M623.57,528.57a3.57,3.57,0,0,1,.24-1.26H618a5.46,5.46,0,0,0-5.44,5.44v17.86a5.46,5.46,0,0,0,5.44,5.44h5.66Z" transform="translate(-566.31 -349.96)"/><path class="cls-1" d="M642.77,528.48a3.51,3.51,0,0,1,.21-1.17H630.7a3.63,3.63,0,0,1,.23,1.23l.14,27.51h11.84Z" transform="translate(-566.31 -349.96)"/><path class="cls-1" d="M649.93,527.31a3.59,3.59,0,0,1,.2,1.14l.14,27.6h20.81l18.26-28.74Z" transform="translate(-566.31 -349.96)"/><path class="cls-1" d="M703.52,561.94h-2.89l-18.25,28.74h21.14a5.46,5.46,0,0,0,5.44-5.44V567.38A5.46,5.46,0,0,0,703.52,561.94Z" transform="translate(-566.31 -349.96)"/><path class="cls-1" d="M623.57,563.2a3.57,3.57,0,0,1,.24-1.26H618a5.46,5.46,0,0,0-5.44,5.44v17.86a5.46,5.46,0,0,0,5.44,5.44h5.66Z" transform="translate(-566.31 -349.96)"/><path class="cls-1" d="M642.77,563.11a3.51,3.51,0,0,1,.21-1.17H630.7a3.58,3.58,0,0,1,.23,1.23l.14,27.51h11.84Z" transform="translate(-566.31 -349.96)"/><path class="cls-1" d="M649.93,561.94a3.59,3.59,0,0,1,.2,1.14l.14,27.6h20.81l18.26-28.74Z" transform="translate(-566.31 -349.96)"/></svg>