<?xml version="1.0" encoding="utf-8"?>
<!-- Generator: Adobe Illustrator 22.0.0, SVG Export Plug-In . SVG Version: 6.00 Build 0)  -->
<svg version="1.1" id="图层_1" xmlns="http://www.w3.org/2000/svg" xmlns:xlink="http://www.w3.org/1999/xlink" x="0px" y="0px"
	 viewBox="0 0 188.9 240.7" style="enable-background:new 0 0 188.9 240.7;" xml:space="preserve">
<style type="text/css">
	.st0{fill:#F3FF11;}
</style>
<title>未标题-3</title>
<path class="st0" d="M2.9,146.3l83.6,90.9c4.1,4.4,10.9,4.7,15.4,0.6c0.2-0.2,0.4-0.4,0.6-0.6l83.6-90.9c4.1-4.4,3.8-11.3-0.6-15.4
	c-2-1.8-4.6-2.9-7.4-2.9h-14L98.9,230.6c-1.3,2.1-4,3-6.3,1.9c-2.4-1.2-3.3-4.1-2.1-6.4c0.1-0.1,0.1-0.3,0.2-0.4l62-97.6h-1.7
	c-4.7,0-8.4-3.8-8.4-8.4v-8l-60.2,94.6c-0.9,1.5-2.8,2.2-4.4,1.6c-1.9-0.7-2.9-2.8-2.2-4.7c0.1-0.2,0.2-0.5,0.3-0.7l62.6-98.3
	c-0.4-0.1-0.9-0.2-1.4-0.2h-16.6l-50.9,80c-1.6,2.2-4,3.5-6.7,3.7l0,0c-1.3,0-2.4-1.1-2.4-2.4c0-0.4,0.1-0.9,0.4-1.3l51-80H87.8
	c-0.1,0.5-0.3,0.9-0.6,1.3l-41.3,65c-2,2.8-5.2,4.6-8.7,4.8l0,0c-1.7,0-3.1-1.4-3.1-3.1c0-0.6,0.2-1.2,0.5-1.7l42.1-66.3H51.5
	c-2.9,0-5.2,2.4-5.2,5.2v10.6c0,4.7-3.8,8.4-8.4,8.4h-27c-6,0-10.8,4.9-10.8,10.9C0.1,141.8,1.1,144.4,2.9,146.3z"/>
<path class="st0" d="M51.7,98h2.9l18.3-28.7H51.7c-3,0-5.4,2.4-5.4,5.4v17.9C46.3,95.6,48.7,98,51.7,98z"/>
<path class="st0" d="M131.7,96.7c0,0.4-0.1,0.9-0.2,1.3h5.8c3,0,5.4-2.4,5.4-5.4V74.7c0-3-2.4-5.4-5.4-5.4h-5.7L131.7,96.7z"/>
<path class="st0" d="M112.5,96.8c0,0.4-0.1,0.8-0.2,1.2h12.3c-0.2-0.4-0.2-0.8-0.2-1.2l-0.1-27.5h-11.8L112.5,96.8z"/>
<path class="st0" d="M105.3,98c-0.1-0.4-0.2-0.8-0.2-1.1L105,69.3H84.2L65.9,98H105.3z"/>
<path class="st0" d="M51.7,63.4h2.9l18.3-28.7H51.7c-3,0-5.4,2.4-5.4,5.4v17.9C46.3,60.9,48.7,63.4,51.7,63.4z"/>
<path class="st0" d="M131.7,62.1c0,0.4-0.1,0.9-0.2,1.3h5.8c3,0,5.4-2.4,5.4-5.4V40.1c0-3-2.4-5.4-5.4-5.4h-5.7L131.7,62.1z"/>
<path class="st0" d="M112.5,62.2c0,0.4-0.1,0.8-0.2,1.2h12.3c-0.2-0.4-0.2-0.8-0.2-1.2l-0.1-27.5h-11.8L112.5,62.2z"/>
<path class="st0" d="M105.3,63.4c-0.1-0.4-0.2-0.7-0.2-1.1L105,34.6H84.2L65.9,63.4H105.3z"/>
<path class="st0" d="M51.7,28.7h2.9L72.9,0H51.7c-3,0-5.4,2.4-5.4,5.4v17.9C46.3,26.3,48.7,28.7,51.7,28.7z"/>
<path class="st0" d="M131.7,27.5c0,0.4-0.1,0.9-0.2,1.3h5.8c3,0,5.4-2.4,5.4-5.4V5.4c0-3-2.4-5.4-5.4-5.4h-5.7L131.7,27.5z"/>
<path class="st0" d="M112.5,27.6c0,0.4-0.1,0.8-0.2,1.2h12.3c-0.2-0.4-0.2-0.8-0.2-1.2L124.2,0h-11.8L112.5,27.6z"/>
<path class="st0" d="M105.3,28.7c-0.1-0.4-0.2-0.7-0.2-1.1L105,0H84.2L65.9,28.7H105.3z"/>
</svg>
